<svg width="28" height="18" viewBox="0 0 28 18" fill="none" xmlns="http://www.w3.org/2000/svg">
<path fill-rule="evenodd" clip-rule="evenodd" d="M0.875 8.99999C0.875 8.75135 0.973772 8.5129 1.14959 8.33708C1.3254 8.16127 1.56386 8.06249 1.8125 8.06249H23.9244L18.0238 2.16374C17.8477 1.98771 17.7488 1.74895 17.7488 1.49999C17.7488 1.25104 17.8477 1.01228 18.0238 0.836244C18.1998 0.660206 18.4385 0.56131 18.6875 0.56131C18.9365 0.56131 19.1752 0.660206 19.3513 0.836244L26.8513 8.33624C26.9386 8.42333 27.0078 8.52678 27.0551 8.64068C27.1024 8.75458 27.1267 8.87668 27.1267 8.99999C27.1267 9.12331 27.1024 9.24541 27.0551 9.35931C27.0078 9.4732 26.9386 9.57666 26.8513 9.66374L19.3513 17.1637C19.1752 17.3398 18.9365 17.4387 18.6875 17.4387C18.4385 17.4387 18.1998 17.3398 18.0238 17.1637C17.8477 16.9877 17.7488 16.7489 17.7488 16.5C17.7488 16.251 17.8477 16.0123 18.0238 15.8362L23.9244 9.93749H1.8125C1.56386 9.93749 1.3254 9.83872 1.14959 9.66291C0.973772 9.48709 0.875 9.24863 0.875 8.99999Z" fill="white"/>
</svg>
