<svg width="16" height="12" viewBox="0 0 16 12" fill="none" xmlns="http://www.w3.org/2000/svg">
<path fill-rule="evenodd" clip-rule="evenodd" d="M15.875 5.99998C15.875 5.85079 15.8157 5.70772 15.7102 5.60223C15.6048 5.49674 15.4617 5.43748 15.3125 5.43748H2.04537L5.58575 1.89823C5.69137 1.79261 5.75071 1.64935 5.75071 1.49998C5.75071 1.35061 5.69137 1.20735 5.58575 1.10173C5.48013 0.996106 5.33687 0.936768 5.1875 0.936768C5.03813 0.936768 4.89487 0.996106 4.78925 1.10173L0.289248 5.60173C0.236865 5.65398 0.195304 5.71605 0.166947 5.78439C0.13859 5.85273 0.123993 5.92599 0.123993 5.99998C0.123993 6.07397 0.13859 6.14723 0.166947 6.21557C0.195304 6.2839 0.236865 6.34598 0.289248 6.39823L4.78925 10.8982C4.89487 11.0038 5.03813 11.0632 5.1875 11.0632C5.33687 11.0632 5.48013 11.0038 5.58575 10.8982C5.69137 10.7926 5.75071 10.6494 5.75071 10.5C5.75071 10.3506 5.69137 10.2073 5.58575 10.1017L2.04537 6.56248H15.3125C15.4617 6.56248 15.6048 6.50321 15.7102 6.39773C15.8157 6.29224 15.875 6.14916 15.875 5.99998Z" fill="#777777"/>
</svg>
