<svg width="18" height="15" viewBox="0 0 18 15" fill="none" xmlns="http://www.w3.org/2000/svg">
    <path d="M14.5 1C15.163 1 15.7989 1.26339 16.2678 1.73223C16.7366 2.20107 17 2.83696 17 3.5V11.5C17 12.163 16.7366 12.7989 16.2678 13.2678C15.7989 13.7366 15.163 14 14.5 14H3.5C2.83696 14 2.20107 13.7366 1.73223 13.2678C1.26339 12.7989 1 12.163 1 11.5V3.5C1 2.83696 1.26339 2.20107 1.73223 1.73223C2.20107 1.26339 2.83696 1 3.5 1H14.5ZM16 4.961L9.254 8.931C9.19022 8.96845 9.11893 8.99128 9.04527 8.99785C8.9716 9.00442 8.8974 8.99457 8.828 8.969L8.746 8.931L2 4.963V11.5C2 11.8978 2.15804 12.2794 2.43934 12.5607C2.72064 12.842 3.10218 13 3.5 13H14.5C14.8978 13 15.2794 12.842 15.5607 12.5607C15.842 12.2794 16 11.8978 16 11.5V4.961ZM14.5 2H3.5C3.10218 2 2.72064 2.15804 2.43934 2.43934C2.15804 2.72064 2 3.10218 2 3.5V3.802L9 7.92L16 3.8V3.5C16 3.10218 15.842 2.72064 15.5607 2.43934C15.2794 2.15804 14.8978 2 14.5 2Z" fill="#4B4B4B" stroke="#4B4B4B" stroke-width="0.5"/>
</svg>
