<svg width="14" height="17" viewBox="0 0 14 17" fill="none" xmlns="http://www.w3.org/2000/svg">
<path d="M6.795 0.88125L7 0.875C7.7934 0.874878 8.55714 1.17654 9.13631 1.7188C9.71547 2.26106 10.0667 3.00331 10.1187 3.795L10.125 4V5.25H11.375C11.8723 5.25 12.3492 5.44754 12.7008 5.79917C13.0525 6.15081 13.25 6.62772 13.25 7.125V14.625C13.25 15.1223 13.0525 15.5992 12.7008 15.9508C12.3492 16.3025 11.8723 16.5 11.375 16.5H2.625C2.12772 16.5 1.65081 16.3025 1.29917 15.9508C0.947544 15.5992 0.75 15.1223 0.75 14.625V7.125C0.75 6.62772 0.947544 6.15081 1.29917 5.79917C1.65081 5.44754 2.12772 5.25 2.625 5.25H3.875V4C3.87488 3.2066 4.17654 2.44286 4.7188 1.86369C5.26106 1.28453 6.00331 0.933297 6.795 0.88125ZM11.375 6.5H2.625C2.45924 6.5 2.30027 6.56585 2.18306 6.68306C2.06585 6.80027 2 6.95924 2 7.125V14.625C2 14.7908 2.06585 14.9497 2.18306 15.0669C2.30027 15.1842 2.45924 15.25 2.625 15.25H11.375C11.5408 15.25 11.6997 15.1842 11.8169 15.0669C11.9342 14.9497 12 14.7908 12 14.625V7.125C12 6.95924 11.9342 6.80027 11.8169 6.68306C11.6997 6.56585 11.5408 6.5 11.375 6.5ZM7 9.625C7.33152 9.625 7.64946 9.7567 7.88388 9.99112C8.1183 10.2255 8.25 10.5435 8.25 10.875C8.25 11.2065 8.1183 11.5245 7.88388 11.7589C7.64946 11.9933 7.33152 12.125 7 12.125C6.66848 12.125 6.35054 11.9933 6.11612 11.7589C5.8817 11.5245 5.75 11.2065 5.75 10.875C5.75 10.5435 5.8817 10.2255 6.11612 9.99112C6.35054 9.7567 6.66848 9.625 7 9.625ZM7.18 2.13375L7 2.125C6.5339 2.12502 6.08451 2.29865 5.73948 2.61202C5.39444 2.9254 5.1785 3.35605 5.13375 3.82L5.125 4V5.25H8.875V4C8.87498 3.5339 8.70135 3.08451 8.38798 2.73948C8.0746 2.39444 7.64395 2.1785 7.18 2.13375Z" fill="#4B4B4B" stroke="#4B4B4B" stroke-width="0.5"/>
</svg>
