<svg width="16" height="18" viewBox="0 0 16 18" fill="none" xmlns="http://www.w3.org/2000/svg">
    <path d="M11.9466 8C12.2322 8.08333 12.5041 8.19643 12.7624 8.33929C13.0206 8.48214 13.291 8.69941 13.5736 8.99107C13.8561 9.28274 14.0977 9.62649 14.2982 10.0223C14.4987 10.4182 14.6658 10.9301 14.7995 11.558C14.9332 12.186 15 12.8899 15 13.6696C15 14.5863 14.6962 15.3705 14.0885 16.0223C13.4809 16.6741 12.7487 17 11.8919 17H4.10807C3.2513 17 2.5191 16.6741 1.91146 16.0223C1.30382 15.3705 1 14.5863 1 13.6696C1 12.8899 1.06684 12.186 1.20052 11.558C1.3342 10.9301 1.5013 10.4182 1.70182 10.0223C1.90234 9.62649 2.14388 9.28274 2.42643 8.99107C2.70898 8.69941 2.97938 8.48214 3.23763 8.33929C3.49588 8.19643 3.7678 8.08333 4.05339 8C3.57335 7.25595 3.33333 6.44643 3.33333 5.57143C3.33333 4.95238 3.45638 4.36161 3.70247 3.79911C3.94857 3.23661 4.28125 2.75 4.70052 2.33929C5.11979 1.92857 5.61654 1.60268 6.19075 1.36161C6.76497 1.12054 7.36806 1 8 1C8.63194 1 9.23503 1.12054 9.80924 1.36161C10.3835 1.60268 10.8802 1.92857 11.2995 2.33929C11.7188 2.75 12.0514 3.23661 12.2975 3.79911C12.5436 4.36161 12.6667 4.95238 12.6667 5.57143C12.6667 6.44643 12.4266 7.25595 11.9466 8ZM8 2.14286C7.03385 2.14286 6.20898 2.47768 5.52539 3.14732C4.8418 3.81696 4.5 4.625 4.5 5.57143C4.5 6.51786 4.8418 7.32589 5.52539 7.99554C6.20898 8.66518 7.03385 9 8 9C8.96615 9 9.79102 8.66518 10.4746 7.99554C11.1582 7.32589 11.5 6.51786 11.5 5.57143C11.5 4.625 11.1582 3.81696 10.4746 3.14732C9.79102 2.47768 8.96615 2.14286 8 2.14286ZM11.8919 15.8571C12.4266 15.8571 12.8839 15.6443 13.2637 15.2188C13.6434 14.7932 13.8333 14.2768 13.8333 13.6696C13.8333 12.247 13.5948 11.125 13.1178 10.3036C12.6408 9.48214 11.9557 9.0506 11.0625 9.00893C10.1814 9.76488 9.16059 10.1429 8 10.1429C6.83941 10.1429 5.81858 9.76488 4.9375 9.00893C4.04427 9.0506 3.35916 9.48214 2.88216 10.3036C2.40516 11.125 2.16667 12.247 2.16667 13.6696C2.16667 14.2768 2.35655 14.7932 2.73633 15.2188C3.1161 15.6443 3.57335 15.8571 4.10807 15.8571H11.8919Z" fill="#4B4B4B" stroke="#4B4B4B" stroke-width="0.5"/>
</svg>
