<svg width="21" height="21" viewBox="0 0 21 21" fill="none" xmlns="http://www.w3.org/2000/svg">
    <path d="M1.75 3.625C1.75 3.12772 1.94754 2.65081 2.29917 2.29917C2.65081 1.94754 3.12772 1.75 3.625 1.75H6.125C6.29076 1.75 6.44973 1.68415 6.56694 1.56694C6.68415 1.44973 6.75 1.29076 6.75 1.125C6.75 0.95924 6.68415 0.800269 6.56694 0.683058C6.44973 0.565848 6.29076 0.5 6.125 0.5H3.625C2.7962 0.5 2.00134 0.82924 1.41529 1.41529C0.82924 2.00134 0.5 2.7962 0.5 3.625V6.125C0.5 6.29076 0.565848 6.44973 0.683058 6.56694C0.800269 6.68415 0.95924 6.75 1.125 6.75C1.29076 6.75 1.44973 6.68415 1.56694 6.56694C1.68415 6.44973 1.75 6.29076 1.75 6.125V3.625ZM19.25 17.375C19.25 17.8723 19.0525 18.3492 18.7008 18.7008C18.3492 19.0525 17.8723 19.25 17.375 19.25H14.875C14.7092 19.25 14.5503 19.3158 14.4331 19.4331C14.3158 19.5503 14.25 19.7092 14.25 19.875C14.25 20.0408 14.3158 20.1997 14.4331 20.3169C14.5503 20.4342 14.7092 20.5 14.875 20.5H17.375C18.2038 20.5 18.9987 20.1708 19.5847 19.5847C20.1708 18.9987 20.5 18.2038 20.5 17.375V14.875C20.5 14.7092 20.4342 14.5503 20.3169 14.4331C20.1997 14.3158 20.0408 14.25 19.875 14.25C19.7092 14.25 19.5503 14.3158 19.4331 14.4331C19.3158 14.5503 19.25 14.7092 19.25 14.875V17.375ZM17.375 1.75C17.8723 1.75 18.3492 1.94754 18.7008 2.29917C19.0525 2.65081 19.25 3.12772 19.25 3.625V6.125C19.25 6.29076 19.3158 6.44973 19.4331 6.56694C19.5503 6.68415 19.7092 6.75 19.875 6.75C20.0408 6.75 20.1997 6.68415 20.3169 6.56694C20.4342 6.44973 20.5 6.29076 20.5 6.125V3.625C20.5 2.7962 20.1708 2.00134 19.5847 1.41529C18.9987 0.82924 18.2038 0.5 17.375 0.5H14.875C14.7092 0.5 14.5503 0.565848 14.4331 0.683058C14.3158 0.800269 14.25 0.95924 14.25 1.125C14.25 1.29076 14.3158 1.44973 14.4331 1.56694C14.5503 1.68415 14.7092 1.75 14.875 1.75H17.375ZM1.75 17.375C1.75 17.8723 1.94754 18.3492 2.29917 18.7008C2.65081 19.0525 3.12772 19.25 3.625 19.25H6.125C6.29076 19.25 6.44973 19.3158 6.56694 19.4331C6.68415 19.5503 6.75 19.7092 6.75 19.875C6.75 20.0408 6.68415 20.1997 6.56694 20.3169C6.44973 20.4342 6.29076 20.5 6.125 20.5H3.625C2.7962 20.5 2.00134 20.1708 1.41529 19.5847C0.82924 18.9987 0.5 18.2038 0.5 17.375V14.875C0.5 14.7092 0.565848 14.5503 0.683058 14.4331C0.800269 14.3158 0.95924 14.25 1.125 14.25C1.29076 14.25 1.44973 14.3158 1.56694 14.4331C1.68415 14.5503 1.75 14.7092 1.75 14.875V17.375ZM12.0413 6.62875C11.8687 6.37968 11.6383 6.17614 11.3699 6.03556C11.1015 5.89497 10.803 5.82154 10.5 5.82154C10.197 5.82154 9.8985 5.89497 9.63008 6.03556C9.36166 6.17614 9.13131 6.37968 8.95875 6.62875L5.71875 11.3075C4.85875 12.5512 5.75 14.25 7.2625 14.25H13.7413C15.2538 14.25 16.1425 12.5512 15.2825 11.3075L12.0425 6.62875H12.0413Z" fill="white" stroke="white"/>
</svg>
