<svg width="18" height="18" viewBox="0 0 18 18" fill="none" xmlns="http://www.w3.org/2000/svg">
    <path d="M16.5583 13.0251L14.8333 11.2584C14.4623 10.9057 13.9942 10.672 13.4894 10.5874C12.9845 10.5027 12.4658 10.571 12 10.7834L11.25 10.0334C12.1338 8.8525 12.5374 7.38064 12.3796 5.9141C12.2218 4.44757 11.5143 3.09526 10.3995 2.12941C9.28474 1.16355 7.84545 0.655871 6.37139 0.70856C4.89733 0.76125 3.49796 1.3704 2.45498 2.41338C1.41199 3.45636 0.802845 4.85574 0.750156 6.32979C0.697466 7.80385 1.20515 9.24314 2.171 10.3579C3.13686 11.4727 4.48916 12.1802 5.9557 12.338C7.42223 12.4958 8.8941 12.0922 10.075 11.2084L10.8167 11.9501C10.5792 12.4164 10.4942 12.9455 10.5734 13.4628C10.6526 13.9801 10.8922 14.4595 11.2583 14.8334L13.025 16.6001C13.4938 17.0682 14.1292 17.3312 14.7917 17.3312C15.4542 17.3312 16.0896 17.0682 16.5583 16.6001C16.7965 16.3672 16.9856 16.0892 17.1148 15.7822C17.244 15.4753 17.3105 15.1456 17.3105 14.8126C17.3105 14.4795 17.244 14.1499 17.1148 13.8429C16.9856 13.536 16.7965 13.2579 16.5583 13.0251ZM9.49167 9.49174C8.90853 10.0734 8.16609 10.4692 7.35812 10.6291C6.55015 10.789 5.71292 10.7059 4.95217 10.3902C4.19143 10.0746 3.5413 9.5405 3.08393 8.85552C2.62656 8.17054 2.38245 7.36538 2.38245 6.54174C2.38245 5.7181 2.62656 4.91294 3.08393 4.22796C3.5413 3.54298 4.19143 3.00892 4.95217 2.69325C5.71292 2.37758 6.55015 2.29445 7.35812 2.45437C8.16609 2.61428 8.90853 3.01008 9.49167 3.59174C9.8797 3.97879 10.1876 4.43858 10.3976 4.94479C10.6077 5.451 10.7158 5.99368 10.7158 6.54174C10.7158 7.0898 10.6077 7.63248 10.3976 8.13869C10.1876 8.6449 9.8797 9.10469 9.49167 9.49174ZM15.3833 15.3834C15.3059 15.4615 15.2137 15.5235 15.1121 15.5658C15.0106 15.6081 14.9017 15.6299 14.7917 15.6299C14.6817 15.6299 14.5727 15.6081 14.4712 15.5658C14.3696 15.5235 14.2775 15.4615 14.2 15.3834L12.4333 13.6167C12.3552 13.5393 12.2932 13.4471 12.2509 13.3456C12.2086 13.244 12.1868 13.1351 12.1868 13.0251C12.1868 12.9151 12.2086 12.8061 12.2509 12.7046C12.2932 12.603 12.3552 12.5109 12.4333 12.4334C12.5108 12.3553 12.603 12.2933 12.7045 12.251C12.8061 12.2087 12.915 12.1869 13.025 12.1869C13.135 12.1869 13.2439 12.2087 13.3455 12.251C13.447 12.2933 13.5392 12.3553 13.6167 12.4334L15.3833 14.2001C15.4614 14.2775 15.5234 14.3697 15.5657 14.4713C15.6081 14.5728 15.6298 14.6817 15.6298 14.7917C15.6298 14.9017 15.6081 15.0107 15.5657 15.1122C15.5234 15.2138 15.4614 15.3059 15.3833 15.3834Z" fill="#4CBB5E" stroke="#4CBB5E" stroke-width="0.2"/>
</svg>
