<svg width="22" height="19" viewBox="0 0 22 19" fill="none" xmlns="http://www.w3.org/2000/svg">
    <path fill-rule="evenodd" clip-rule="evenodd" d="M22 2.94994C21.1763 3.31502 20.3024 3.55449 19.4077 3.66036C20.3501 3.09626 21.0555 2.20884 21.3923 1.16336C20.5062 1.68945 19.5368 2.06023 18.5258 2.25969C17.8462 1.53394 16.946 1.05285 15.965 0.891087C14.984 0.729326 13.977 0.895949 13.1003 1.36509C12.2237 1.83423 11.5265 2.57965 11.1168 3.48563C10.7072 4.39161 10.6082 5.40747 10.835 6.37553C9.04017 6.28583 7.28429 5.81948 5.68148 5.00678C4.07867 4.19409 2.6648 3.05323 1.53175 1.65836C1.13017 2.34726 0.919144 3.13062 0.920333 3.92803C0.920333 5.49369 1.71692 6.87603 2.92875 7.68544C2.21201 7.66224 1.51105 7.46902 0.883667 7.12169V7.17669C0.883528 8.21908 1.24403 9.2294 1.90401 10.0362C2.56398 10.8431 3.48278 11.3967 4.5045 11.6033C3.8396 11.7832 3.14253 11.8099 2.46583 11.6812C2.75422 12.5781 3.31569 13.3624 4.07173 13.9245C4.82776 14.4866 5.74057 14.7984 6.6825 14.8162C5.08344 16.0703 3.10926 16.7505 1.07708 16.7476C0.71225 16.7476 0.352917 16.7265 0 16.6853C2.064 18.0111 4.46588 18.715 6.919 18.7129C15.2213 18.7129 19.7606 11.8352 19.7606 5.87044C19.7606 5.67519 19.756 5.48086 19.7477 5.28744C20.6314 4.64828 21.3941 3.85674 22 2.94994Z" fill="#55ACEE"/>
</svg>
