<svg width="18" height="18" viewBox="0 0 18 18" fill="none" xmlns="http://www.w3.org/2000/svg">
<path d="M11.65 12.5338L16.6825 17.5676C16.7406 17.6257 16.8096 17.6718 16.8855 17.7032C16.9614 17.7347 17.0428 17.7508 17.125 17.7508C17.2072 17.7508 17.2886 17.7347 17.3645 17.7032C17.4404 17.6718 17.5094 17.6257 17.5675 17.5676C17.6256 17.5094 17.6717 17.4405 17.7032 17.3645C17.7346 17.2886 17.7508 17.2072 17.7508 17.1251C17.7508 17.0429 17.7346 16.9615 17.7032 16.8856C17.6717 16.8097 17.6256 16.7407 17.5675 16.6826L1.3175 0.432557C1.25939 0.374447 1.19041 0.328352 1.11448 0.296903C1.03856 0.265454 0.957184 0.249268 0.875004 0.249268C0.792824 0.249268 0.711449 0.265454 0.635525 0.296903C0.5596 0.328352 0.490614 0.374447 0.432504 0.432557C0.374394 0.490667 0.328298 0.559654 0.29685 0.635578C0.265401 0.711502 0.249214 0.792877 0.249214 0.875057C0.249214 0.957237 0.265401 1.03861 0.29685 1.11454C0.328298 1.19046 0.374394 1.25945 0.432504 1.31756L4.47 5.35506C3.92048 5.74433 3.42602 6.206 3 6.72756C2.39675 7.46776 1.92453 8.30567 1.60375 9.20506C1.5775 9.28131 1.545 9.38631 1.545 9.38631L1.5225 9.46381C1.5225 9.46381 1.4275 10.0851 1.96625 10.2276C2.12637 10.2699 2.29675 10.2469 2.43995 10.1637C2.58315 10.0805 2.68747 9.94387 2.73 9.78381L2.73125 9.78006L2.74125 9.74881L2.785 9.61256C3.05745 8.85321 3.45688 8.14565 3.96625 7.52006C4.36669 7.02788 4.84058 6.60037 5.37125 6.25256L7.34375 8.22506C6.94571 8.47454 6.60903 8.81055 6.35876 9.20811C6.10849 9.60566 5.95107 10.0545 5.89821 10.5213C5.84535 10.9881 5.89841 11.4608 6.05344 11.9042C6.20847 12.3477 6.46148 12.7505 6.79366 13.0827C7.12583 13.4148 7.52863 13.6678 7.97208 13.8229C8.41553 13.9779 8.88822 14.031 9.35501 13.9781C9.82179 13.9252 10.2707 13.7678 10.6682 13.5176C11.0658 13.2673 11.4018 12.9306 11.6513 12.5326L11.65 12.5338ZM10.725 11.6088C10.605 11.8913 10.4175 12.1401 10.179 12.3332C9.94041 12.5263 9.65809 12.6579 9.35679 12.7165C9.05549 12.775 8.74443 12.7587 8.45091 12.6689C8.1574 12.5792 7.8904 12.4187 7.67337 12.2017C7.45633 11.9847 7.2959 11.7177 7.20615 11.4241C7.11639 11.1306 7.10007 10.8196 7.15861 10.5183C7.21715 10.217 7.34876 9.93465 7.54188 9.6961C7.73501 9.45754 7.98374 9.27004 8.26625 9.15006L10.7275 11.6101L10.725 11.6088ZM6.9 4.25006L7.9675 5.31756C8.2925 5.27381 8.63625 5.25006 9 5.25006C11.555 5.25006 13.1075 6.39006 14.035 7.52131C14.5445 8.14683 14.9439 8.85441 15.2163 9.61381C15.2375 9.67381 15.2513 9.72006 15.26 9.75006L15.27 9.78131V9.78506L15.2713 9.78631C15.3175 9.94231 15.4228 10.0741 15.5647 10.1537C15.7066 10.2333 15.8739 10.2545 16.0312 10.2126C16.1884 10.1708 16.3231 10.0693 16.4067 9.92971C16.4903 9.79011 16.5161 9.62341 16.4788 9.46506V9.46131L16.4775 9.45631L16.4725 9.44006C16.4508 9.36111 16.4258 9.28312 16.3975 9.20631C16.0767 8.30692 15.6045 7.46901 15.0013 6.72881C13.8813 5.36006 11.995 4.00006 9.0025 4.00006C8.23 4.00006 7.53125 4.09006 6.90125 4.24881L6.9 4.25006Z" fill="#4CBB5E" stroke="#4CBB5E" stroke-width="0.5"/>
</svg>
