<svg width="18" height="10" viewBox="0 0 18 10" fill="none" xmlns="http://www.w3.org/2000/svg">
    <path d="M2.29002 6.09833C2.21542 6.30201 2.06433 6.46858 1.86887 6.56263C1.67341 6.65669 1.44897 6.67082 1.24326 6.60203C1.03754 6.53324 0.866749 6.38695 0.767179 6.19424C0.667608 6.00153 0.647103 5.77759 0.710021 5.57C0.693355 5.62 0.710021 5.56833 0.710021 5.56833C0.73974 5.47659 0.774231 5.38647 0.813355 5.29833C0.880021 5.14 0.978355 4.92167 1.11335 4.66333C1.38669 4.14667 1.81669 3.45833 2.44669 2.77C3.72502 1.37833 5.81335 0 9.00002 0C12.1884 0 14.2767 1.37833 15.5517 2.77C16.2324 3.51651 16.7843 4.37092 17.185 5.29833C17.2184 5.37667 17.2434 5.44 17.26 5.48667C17.2667 5.5 17.2834 5.58667 17.3 5.67C17.315 5.74667 17.3284 5.82 17.3334 5.83333C17.3334 5.83333 17.4734 6.38833 16.7634 6.62333C16.5543 6.69316 16.326 6.67729 16.1286 6.57921C15.9312 6.48112 15.7807 6.30881 15.71 6.1V6.095L15.6984 6.06833C15.6146 5.85423 15.5189 5.64501 15.4117 5.44167C15.1159 4.88262 14.7501 4.36346 14.3234 3.89667C13.3067 2.78833 11.645 1.66667 9.00002 1.66667C6.35502 1.66667 4.69335 2.78833 3.67669 3.89667C3.12625 4.50012 2.67863 5.18985 2.35169 5.93833C2.33419 5.98134 2.31752 6.02468 2.30169 6.06833L2.29002 6.09833Z" fill="#4CBB5E"/>
    <path d="M9.00002 3.33337C8.11597 3.33337 7.26812 3.68456 6.643 4.30968C6.01788 4.93481 5.66669 5.78265 5.66669 6.66671C5.66669 7.55076 6.01788 8.39861 6.643 9.02373C7.26812 9.64885 8.11597 10 9.00002 10C9.88408 10 10.7319 9.64885 11.357 9.02373C11.9822 8.39861 12.3334 7.55076 12.3334 6.66671C12.3334 5.78265 11.9822 4.93481 11.357 4.30968C10.7319 3.68456 9.88408 3.33337 9.00002 3.33337ZM7.33335 6.66671C7.33335 6.22468 7.50895 5.80076 7.82151 5.4882C8.13407 5.17564 8.55799 5.00004 9.00002 5.00004C9.44205 5.00004 9.86597 5.17564 10.1785 5.4882C10.4911 5.80076 10.6667 6.22468 10.6667 6.66671C10.6667 7.10873 10.4911 7.53266 10.1785 7.84522C9.86597 8.15778 9.44205 8.33337 9.00002 8.33337C8.55799 8.33337 8.13407 8.15778 7.82151 7.84522C7.50895 7.53266 7.33335 7.10873 7.33335 6.66671Z" fill="#4CBB5E"/>
</svg>
